<svg width="32" height="32" viewBox="0 0 32 32" fill="none" xmlns="http://www.w3.org/2000/svg">
<path d="M30.7409 11.7696C30.7458 11.8577 30.7394 11.9473 30.7173 12.0363L28.7434 19.9316C28.6439 20.3294 28.2874 20.6091 27.8776 20.6112L16.0346 20.671C16.033 20.671 16.0316 20.671 16.03 20.671H4.18692C3.77492 20.671 3.41593 20.3904 3.3164 19.9906L1.34256 12.0654C1.31984 11.974 1.31326 11.8819 1.319 11.7915C0.555424 11.551 0 10.8364 0 9.99439C0 8.95544 0.845159 8.11028 1.88411 8.11028C2.92307 8.11028 3.76822 8.95544 3.76822 9.99439C3.76822 10.5795 3.50014 11.103 3.08037 11.4488L5.55161 13.9387C6.17618 14.5681 7.04287 14.9289 7.92954 14.9289C8.97794 14.9289 9.97754 14.431 10.607 13.5968L14.6683 8.21555C14.3271 7.87462 14.1159 7.40353 14.1159 6.88411C14.1159 5.84516 14.961 5 16 5C17.039 5 17.8841 5.84516 17.8841 6.88411C17.8841 7.38798 17.6841 7.84531 17.3607 8.18373C17.3618 8.18517 17.3631 8.18636 17.3642 8.18792L21.3961 13.584C22.0253 14.4262 23.0285 14.929 24.0799 14.929C24.9747 14.929 25.8162 14.5805 26.4489 13.9477L28.9357 11.4609C28.507 11.1152 28.2318 10.5867 28.2318 9.99439C28.2318 8.95544 29.0769 8.11028 30.1159 8.11028C31.1548 8.11028 32 8.95544 32 9.99439C32 10.814 31.473 11.511 30.7409 11.7696ZM28.5508 23.4822C28.5508 22.9868 28.1491 22.585 27.6536 22.585H4.44615C3.95065 22.585 3.54895 22.9868 3.54895 23.4822V25.6355C3.54895 26.131 3.95065 26.5327 4.44615 26.5327H27.6536C28.1491 26.5327 28.5508 26.131 28.5508 25.6355V23.4822Z" fill="white"/>
</svg>
